<svg xmlns="http://www.w3.org/2000/svg" viewBox="0 0 100 100" width="100" height="100">
  <!-- Small Hello Kitty Face -->
  <ellipse cx="50" cy="55" rx="35" ry="30" fill="#ffffff" stroke="#ff69b4" stroke-width="2"/>
  
  <!-- Left Ear -->
  <ellipse cx="30" cy="35" rx="12" ry="18" fill="#ffffff" stroke="#ff69b4" stroke-width="1.5"/>
  <ellipse cx="30" cy="35" rx="7" ry="10" fill="#ffb6c1"/>
  
  <!-- Right Ear -->
  <ellipse cx="70" cy="35" rx="12" ry="18" fill="#ffffff" stroke="#ff69b4" stroke-width="1.5"/>
  <ellipse cx="70" cy="35" rx="7" ry="10" fill="#ffb6c1"/>
  
  <!-- Eyes -->
  <ellipse cx="42" cy="50" rx="4" ry="6" fill="#000000"/>
  <ellipse cx="58" cy="50" rx="4" ry="6" fill="#000000"/>
  
  <!-- Eye highlights -->
  <ellipse cx="43" cy="48" rx="1.5" ry="2" fill="#ffffff"/>
  <ellipse cx="59" cy="48" rx="1.5" ry="2" fill="#ffffff"/>
  
  <!-- Nose -->
  <ellipse cx="50" cy="57" rx="2" ry="1.5" fill="#ff69b4"/>
  
  <!-- Whiskers -->
  <line x1="30" y1="55" x2="40" y2="54" stroke="#000000" stroke-width="1"/>
  <line x1="30" y1="60" x2="40" y2="60" stroke="#000000" stroke-width="1"/>
  <line x1="60" y1="54" x2="70" y2="55" stroke="#000000" stroke-width="1"/>
  <line x1="60" y1="60" x2="70" y2="60" stroke="#000000" stroke-width="1"/>
  
  <!-- Small Bow -->
  <path d="M 42 25 Q 50 20 58 25 Q 50 30 42 25 Z" fill="#ff1493"/>
  <ellipse cx="50" cy="25" rx="4" ry="3" fill="#ffd700"/>
</svg>
