<svg xmlns="http://www.w3.org/2000/svg" viewBox="0 0 200 200" width="200" height="200">
  <!-- Hello Kitty Head (Winking) -->
  <ellipse cx="100" cy="120" rx="65" ry="55" fill="#ffffff" stroke="#ff69b4" stroke-width="3"/>
  
  <!-- Left Ear -->
  <ellipse cx="65" cy="75" rx="20" ry="30" fill="#ffffff" stroke="#ff69b4" stroke-width="2"/>
  <ellipse cx="65" cy="75" rx="12" ry="18" fill="#ffb6c1"/>
  
  <!-- Right Ear -->
  <ellipse cx="135" cy="75" rx="20" ry="30" fill="#ffffff" stroke="#ff69b4" stroke-width="2"/>
  <ellipse cx="135" cy="75" rx="12" ry="18" fill="#ffb6c1"/>
  
  <!-- Left Eye (Winking) -->
  <path d="M 72 110 Q 80 105 88 110 Q 80 115 72 110 Z" fill="#000000"/>
  
  <!-- Right Eye -->
  <ellipse cx="120" cy="110" rx="8" ry="12" fill="#000000"/>
  <ellipse cx="122" cy="107" rx="3" ry="4" fill="#ffffff"/>
  
  <!-- Nose -->
  <ellipse cx="100" cy="125" rx="3" ry="2" fill="#ff69b4"/>
  
  <!-- Mouth (Happy) -->
  <path d="M 90 135 Q 100 145 110 135" stroke="#ff69b4" stroke-width="2" fill="none"/>
  
  <!-- Whiskers -->
  <line x1="50" y1="120" x2="70" y2="118" stroke="#000000" stroke-width="2"/>
  <line x1="50" y1="130" x2="70" y2="130" stroke="#000000" stroke-width="2"/>
  <line x1="130" y1="118" x2="150" y2="120" stroke="#000000" stroke-width="2"/>
  <line x1="130" y1="130" x2="150" y2="130" stroke="#000000" stroke-width="2"/>
  
  <!-- Big Pink Bow -->
  <path d="M 75 40 Q 100 25 125 40 Q 100 60 75 40 Z" fill="#ff1493"/>
  <path d="M 75 40 Q 100 15 125 40 Q 100 30 75 40 Z" fill="#ff69b4"/>
  <ellipse cx="100" cy="40" rx="10" ry="8" fill="#ffd700"/>
  
  <!-- Bow center -->
  <rect x="95" y="36" width="10" height="8" fill="#ff1493"/>
  
  <!-- Hearts around -->
  <text x="30" y="50" font-family="Arial" font-size="20" fill="#ff69b4">💕</text>
  <text x="160" y="60" font-family="Arial" font-size="20" fill="#ff69b4">💕</text>
</svg>
